<svg width="18" height="10" viewBox="0 0 18 10" fill="none" xmlns="http://www.w3.org/2000/svg">
<mask id="mask0_1379_2740" style="mask-type:alpha" maskUnits="userSpaceOnUse" x="0" y="0" width="18" height="10">
<rect x="18" width="10" height="18" transform="rotate(90 18 0)" fill="#D9D9D9"/>
</mask>
<g mask="url(#mask0_1379_2740)">
<path d="M15.2453 2.92166C15.1941 3.17431 15.0374 3.35341 14.8615 3.52931C13.272 5.11559 11.6857 6.70187 10.0962 8.29135C9.84679 8.5408 9.55576 8.64634 9.21676 8.52481C9.09523 8.48004 8.9737 8.40008 8.88095 8.30734C7.2435 6.67628 5.60605 5.03883 3.9718 3.40138C3.72554 3.15192 3.63919 2.8545 3.76392 2.52509C3.87905 2.21487 4.11891 2.03577 4.45152 2.00379C4.72016 1.9782 4.94084 2.08374 5.12633 2.27243C5.50371 2.64982 5.88109 3.0272 6.25847 3.40458C7.29787 4.44398 8.34046 5.48657 9.37986 6.52917C9.40865 6.55795 9.43103 6.59313 9.50779 6.6475C9.53018 6.60912 9.54617 6.56115 9.57495 6.52917C10.9885 5.11239 12.4053 3.69881 13.8189 2.28203C14.0619 2.03897 14.3434 1.93663 14.6792 2.04217C14.9446 2.12532 15.1205 2.30442 15.2037 2.56986C15.2165 2.61144 15.2325 2.65301 15.2453 2.69779C15.2453 2.77135 15.2453 2.8481 15.2453 2.92166Z" fill="white"/>
</g>
</svg>
